<svg width="458" height="458" viewBox="0 0 458 458" fill="none" xmlns="http://www.w3.org/2000/svg">
<path d="M229 9.54177C221.897 9.52577 214.975 11.7802 209.243 15.9761C203.512 20.1721 199.271 26.0898 197.14 32.8659C195.01 39.642 195.1 46.9217 197.398 53.6428C199.697 60.3639 204.083 66.1745 209.917 70.2268V96.9434C192.742 99.4243 176.712 104.958 162.209 113.355L141.026 83.0126C144.652 73.0893 143.698 61.6393 137.21 52.4793C130.53 43.1284 120.225 38.1668 109.73 38.1668C103.05 38.1668 96.3713 40.0751 90.6463 44.2734C75.5705 54.7693 71.7538 75.5701 82.4405 90.6459C88.9288 99.9968 99.2338 104.958 109.73 104.958L132.248 137.018C124.042 145.224 117.554 154.384 112.02 164.498C108.203 162.972 104.195 162.208 100.188 162.208C91.6005 162.208 83.013 165.453 76.3338 171.75C63.548 185.108 63.548 206.1 76.3338 219.458C81.868 224.611 88.5471 227.473 95.4171 229C95.4171 239.305 96.753 249.228 98.8521 258.77L73.853 265.449C67.9371 260.488 60.3038 257.625 52.4796 257.625C49.6171 257.625 46.5638 257.625 43.7013 258.77C35.1493 261.101 27.8727 266.732 23.4712 274.425C19.0696 282.119 17.9034 291.246 20.2288 299.799C24.2363 314.875 38.1671 324.417 52.4796 324.417C55.3421 324.417 58.2046 324.417 61.258 323.272C72.1355 320.218 80.3413 312.203 83.7763 302.28L112.592 294.456C121.18 309.532 132.63 322.89 145.988 333.958L124.996 372.125C114.5 373.652 104.959 379.568 99.4246 389.682C97.3446 393.541 96.0451 397.772 95.6003 402.134C95.1555 406.495 95.5741 410.902 96.8323 415.102C98.0904 419.301 100.163 423.212 102.933 426.611C105.703 430.009 109.114 432.829 112.974 434.909C116.833 436.989 121.064 438.289 125.426 438.734C129.787 439.178 134.194 438.76 138.394 437.502C142.593 436.243 146.504 434.17 149.903 431.401C153.301 428.631 156.121 425.219 158.201 421.36C163.545 411.437 163.354 399.987 158.583 390.636L179.002 353.042C194.46 359.148 211.253 362.583 229 362.583H232.435C229.955 367.545 229 373.27 229 379.377C230.527 396.933 245.03 410.292 262.396 410.292H264.877C283.388 408.765 297.128 392.735 295.792 374.415C295.029 364.873 290.258 356.477 283.388 350.943C292.357 346.935 300.945 341.783 308.96 335.867L353.615 380.522C351.706 391.208 354.76 402.086 362.584 410.292C369.263 416.589 377.85 419.833 386.438 419.833C395.025 419.833 403.613 416.589 410.292 410.292C423.078 396.933 423.078 375.942 410.292 362.583C403.613 356.286 395.025 353.042 386.438 353.042C384.53 353.042 382.621 353.042 380.522 353.614L335.867 308.959C345.218 296.555 352.47 282.433 357.05 267.167H378.232C382.284 273.001 388.095 277.387 394.816 279.685C401.537 281.984 408.817 282.074 415.593 279.943C422.369 277.813 428.287 273.572 432.483 267.841C436.679 262.109 438.933 255.187 438.917 248.083C438.933 240.98 436.679 234.058 432.483 228.326C428.287 222.595 422.369 218.354 415.593 216.223C408.817 214.093 401.537 214.183 394.816 216.481C388.095 218.78 382.284 223.166 378.232 229H362.584C362.584 199.039 353.042 171.75 335.867 149.041L361.439 123.469C363.538 124.042 365.446 124.042 367.355 124.042C375.942 124.042 384.53 120.798 391.209 114.5C403.995 101.333 403.995 80.1501 391.209 66.7918C384.53 60.4943 375.942 57.2501 367.355 57.2501C358.767 57.2501 350.18 60.4943 343.5 66.7918C335.676 74.9976 332.623 85.8751 334.531 96.5618L308.96 122.133C291.403 108.966 270.793 100.188 248.084 96.9434V70.2268C253.918 66.1745 258.304 60.3639 260.602 53.6428C262.901 46.9217 262.991 39.642 260.86 32.8659C258.73 26.0898 254.489 20.1721 248.758 15.9761C243.026 11.7802 236.104 9.52577 229 9.54177ZM229 324.417C176.33 324.417 133.584 281.67 133.584 229C133.584 176.33 176.33 133.583 229 133.583C281.67 133.583 324.417 176.33 324.417 229C324.417 281.67 281.67 324.417 229 324.417ZM200.375 171.75C184.536 171.75 171.75 184.536 171.75 200.375C171.75 216.214 184.536 229 200.375 229C216.215 229 229 216.214 229 200.375C229 184.536 216.215 171.75 200.375 171.75ZM267.167 248.083C256.671 248.083 248.084 256.671 248.084 267.167C248.084 277.663 256.671 286.25 267.167 286.25C277.663 286.25 286.25 277.663 286.25 267.167C286.25 256.671 277.663 248.083 267.167 248.083Z" fill="#636F7A"/>
</svg>
