<svg width="24" height="24" viewBox="0 0 24 24" fill="none" xmlns="http://www.w3.org/2000/svg">
<path d="M12 0.500004C11.6278 0.499166 11.265 0.617303 10.9647 0.837176C10.6644 1.05705 10.4421 1.36715 10.3305 1.72223C10.2188 2.07731 10.2236 2.45878 10.344 2.81098C10.4644 3.16317 10.6943 3.46766 11 3.68V5.08C10.1 5.21 9.26 5.5 8.5 5.94L7.39 4.35C7.58 3.83 7.53 3.23 7.19 2.75C6.84 2.26 6.3 2 5.75 2C5.4 2 5.05 2.1 4.75 2.32C3.96 2.87 3.76 3.96 4.32 4.75C4.66 5.24 5.2 5.5 5.75 5.5L6.93 7.18C6.5 7.61 6.16 8.09 5.87 8.62C5.67 8.54 5.46 8.5 5.25 8.5C4.8 8.5 4.35 8.67 4 9C3.33 9.7 3.33 10.8 4 11.5C4.29 11.77 4.64 11.92 5 12C5 12.54 5.07 13.06 5.18 13.56L3.87 13.91C3.56 13.65 3.16 13.5 2.75 13.5C2.6 13.5 2.44 13.5 2.29 13.56C1.84186 13.6821 1.46055 13.9772 1.2299 14.3804C0.999256 14.7835 0.938142 15.2618 1.06 15.71C1.27 16.5 2 17 2.75 17C2.9 17 3.05 17 3.21 16.94C3.78 16.78 4.21 16.36 4.39 15.84L5.9 15.43C6.35 16.22 6.95 16.92 7.65 17.5L6.55 19.5C6 19.58 5.5 19.89 5.21 20.42C5.101 20.6222 5.03291 20.844 5.0096 21.0725C4.98629 21.3011 5.00823 21.532 5.07416 21.7521C5.14009 21.9721 5.24872 22.1771 5.39385 22.3552C5.53898 22.5332 5.71776 22.681 5.92 22.79C6.12223 22.899 6.34396 22.9671 6.57251 22.9904C6.80106 23.0137 7.03197 22.9918 7.25204 22.9258C7.47212 22.8599 7.67705 22.7513 7.85515 22.6062C8.03324 22.461 8.181 22.2822 8.29 22.08C8.57 21.56 8.56 20.96 8.31 20.47L9.38 18.5C10.19 18.82 11.07 19 12 19H12.18C12.05 19.26 12 19.56 12 19.88C12.08 20.8 12.84 21.5 13.75 21.5H13.88C14.85 21.42 15.57 20.58 15.5 19.62C15.46 19.12 15.21 18.68 14.85 18.39C15.32 18.18 15.77 17.91 16.19 17.6L18.53 19.94C18.43 20.5 18.59 21.07 19 21.5C19.35 21.83 19.8 22 20.25 22C20.7 22 21.15 21.83 21.5 21.5C22.17 20.8 22.17 19.7 21.5 19C21.15 18.67 20.7 18.5 20.25 18.5C20.15 18.5 20.05 18.5 19.94 18.53L17.6 16.19C18.09 15.54 18.47 14.8 18.71 14H19.82C20.0323 14.3057 20.3368 14.5356 20.689 14.656C21.0412 14.7764 21.4227 14.7812 21.7778 14.6695C22.1329 14.5579 22.443 14.3357 22.6628 14.0353C22.8827 13.735 23.0008 13.3722 23 13C23.0008 12.6278 22.8827 12.265 22.6628 11.9647C22.443 11.6644 22.1329 11.4421 21.7778 11.3305C21.4227 11.2188 21.0412 11.2236 20.689 11.344C20.3368 11.4644 20.0323 11.6943 19.82 12H19C19 10.43 18.5 9 17.6 7.81L18.94 6.47C19.05 6.5 19.15 6.5 19.25 6.5C19.7 6.5 20.15 6.33 20.5 6C21.17 5.31 21.17 4.2 20.5 3.5C20.15 3.17 19.7 3 19.25 3C18.8 3 18.35 3.17 18 3.5C17.59 3.93 17.43 4.5 17.53 5.06L16.19 6.4C15.27 5.71 14.19 5.25 13 5.08V3.68C13.3057 3.46766 13.5356 3.16317 13.656 2.81098C13.7764 2.45878 13.7812 2.07731 13.6695 1.72223C13.5579 1.36715 13.3356 1.05705 13.0353 0.837176C12.735 0.617303 12.3722 0.499166 12 0.500004ZM12 17C9.24 17 7 14.76 7 12C7 9.24 9.24 7 12 7C14.76 7 17 9.24 17 12C17 14.76 14.76 17 12 17ZM10.5 9C9.67 9 9 9.67 9 10.5C9 11.33 9.67 12 10.5 12C11.33 12 12 11.33 12 10.5C12 9.67 11.33 9 10.5 9ZM14 13C13.45 13 13 13.45 13 14C13 14.55 13.45 15 14 15C14.55 15 15 14.55 15 14C15 13.45 14.55 13 14 13Z" fill="#FF3B30"/>
</svg>
