
<svg width="24" height="24" viewBox="0 0 24 24" fill="none" xmlns="http://www.w3.org/2000/svg">
<path fill-rule="evenodd" clip-rule="evenodd" d="M14.5455 3H10.4546V5.45455H5.54547V21H19.4546V5.45455H14.5455V3Z" fill="white"/>
<path d="M8.85714 11.5312V9.96875C8.85714 9.70988 9.06103 9.5 9.3125 9.5H10.8304C11.0818 9.5 11.2857 9.70988 11.2857 9.96875V11.5312C11.2857 11.7901 11.0818 12 10.8304 12H9.3125C9.06103 12 8.85714 11.7901 8.85714 11.5312ZM14.1696 12H15.6875C15.939 12 16.1429 11.7901 16.1429 11.5312V9.96875C16.1429 9.70988 15.939 9.5 15.6875 9.5H14.1696C13.9182 9.5 13.7143 9.70988 13.7143 9.96875V11.5312C13.7143 11.7901 13.9182 12 14.1696 12ZM11.2857 15.2812V13.7188C11.2857 13.4599 11.0818 13.25 10.8304 13.25H9.3125C9.06103 13.25 8.85714 13.4599 8.85714 13.7188V15.2812C8.85714 15.5401 9.06103 15.75 9.3125 15.75H10.8304C11.0818 15.75 11.2857 15.5401 11.2857 15.2812ZM14.1696 15.75H15.6875C15.939 15.75 16.1429 15.5401 16.1429 15.2812V13.7188C16.1429 13.4599 15.939 13.25 15.6875 13.25H14.1696C13.9182 13.25 13.7143 13.4599 13.7143 13.7188V15.2812C13.7143 15.5401 13.9182 15.75 14.1696 15.75ZM21 20.5938V22H4V20.5938C4 20.3349 4.20389 20.125 4.45536 20.125H5.19531V5.32168C5.19531 4.86789 5.60305 4.5 6.10603 4.5H9.46429V2.9375C9.46429 2.41973 9.87202 2 10.375 2H14.625C15.128 2 15.5357 2.41973 15.5357 2.9375V4.5H18.894C19.397 4.5 19.8047 4.86789 19.8047 5.32168V20.125H20.5446C20.7961 20.125 21 20.3349 21 20.5938ZM7.01674 20.0859H11.2857V17.4688C11.2857 17.2099 11.4896 17 11.7411 17H13.2589C13.5104 17 13.7143 17.2099 13.7143 17.4688V20.0859H17.9833V6.375H15.5357V7.3125C15.5357 7.83027 15.128 8.25 14.625 8.25H10.375C9.87202 8.25 9.46429 7.83027 9.46429 7.3125V6.375H7.01674V20.0859ZM14.0938 4.5H13.1071V3.48438C13.1071 3.42221 13.0832 3.3626 13.0405 3.31865C12.9978 3.27469 12.9398 3.25 12.8795 3.25H12.1205C12.0602 3.25 12.0022 3.27469 11.9595 3.31865C11.9168 3.3626 11.8929 3.42221 11.8929 3.48438V4.5H10.9062C10.8459 4.5 10.788 4.52469 10.7453 4.56865C10.7026 4.6126 10.6786 4.67221 10.6786 4.73438V5.51562C10.6786 5.57779 10.7026 5.6374 10.7453 5.68135C10.788 5.72531 10.8459 5.75 10.9062 5.75H11.8929V6.76562C11.8929 6.82779 11.9168 6.8874 11.9595 6.93135C12.0022 6.97531 12.0602 7 12.1205 7H12.8795C12.9398 7 12.9978 6.97531 13.0405 6.93135C13.0832 6.8874 13.1071 6.82779 13.1071 6.76562V5.75H14.0938C14.1541 5.75 14.212 5.72531 14.2547 5.68135C14.2974 5.6374 14.3214 5.57779 14.3214 5.51562V4.73438C14.3214 4.67221 14.2974 4.6126 14.2547 4.56865C14.212 4.52469 14.1541 4.5 14.0938 4.5Z" fill="#FF3B30"/>
</svg>
