<svg width="24" height="24" viewBox="0 0 24 24" fill="none" xmlns="http://www.w3.org/2000/svg">
<path d="M8.79998 1.6L9.59998 3.2H17.6L18.4 1.6H8.79998ZM9.59998 4V6C9.59998 6 9.59998 10.4 13.6 10.4C17.6 10.4 17.6 6 17.6 6V4H9.59998ZM3.17438 6.3776C2.75058 6.38434 2.34677 6.55896 2.05159 6.86314C1.75642 7.16731 1.594 7.57619 1.59998 8V14.4C1.59978 14.6397 1.65345 14.8764 1.75702 15.0926C1.86059 15.3088 2.01141 15.4989 2.19835 15.649C2.38528 15.7991 2.60354 15.9052 2.83701 15.9596C3.07048 16.014 3.31318 16.0152 3.54718 15.9632L7.99998 14.9712V22.4L17.4064 11.312C17.1824 11.248 16.952 11.2 16.7056 11.2H10.4L4.79998 12.4064V8C4.80301 7.78583 4.76301 7.57324 4.68234 7.37483C4.60168 7.17641 4.482 6.99621 4.3304 6.84491C4.1788 6.6936 3.99836 6.57428 3.79979 6.49401C3.60121 6.41373 3.38854 6.37415 3.17438 6.3776ZM18.7968 12.3376L10.2592 22.4H19.2V13.6944C19.2 13.192 19.0496 12.728 18.7968 12.3376Z" fill="#C7A500"/>
</svg>
