<svg width="10" height="14" viewBox="0 0 10 14" fill="none" xmlns="http://www.w3.org/2000/svg">
<path d="M5.00004 0.333364C2.42004 0.333364 0.333374 2.42003 0.333374 5.00003C0.333374 8.50003 5.00004 13.6667 5.00004 13.6667C5.00004 13.6667 9.66671 8.50003 9.66671 5.00003C9.66671 2.42003 7.58004 0.333364 5.00004 0.333364ZM5.00004 6.6667C4.55801 6.6667 4.13409 6.4911 3.82153 6.17854C3.50897 5.86598 3.33337 5.44206 3.33337 5.00003C3.33337 4.558 3.50897 4.13408 3.82153 3.82152C4.13409 3.50896 4.55801 3.33336 5.00004 3.33336C5.44207 3.33336 5.86599 3.50896 6.17855 3.82152C6.49111 4.13408 6.66671 4.558 6.66671 5.00003C6.66671 5.44206 6.49111 5.86598 6.17855 6.17854C5.86599 6.4911 5.44207 6.6667 5.00004 6.6667Z" fill="#8995A0"/>
</svg>
