<svg width="20" height="20" viewBox="0 0 20 20" fill="none" xmlns="http://www.w3.org/2000/svg">
<path d="M18.7633 9.49141C18.8477 9.21016 18.8898 8.91953 18.8898 8.62422C18.8898 7.96094 18.6719 7.32344 18.2781 6.80313C18.3625 6.52188 18.4047 6.23125 18.4047 5.93594C18.4047 5.27266 18.1867 4.63516 17.793 4.11484C17.8773 3.83359 17.9195 3.54297 17.9195 3.24766C17.9195 2.03828 17.2 0.948437 16.0844 0.472656C15.8883 0.388114 15.6768 0.345025 15.4633 0.346094H4.39844V10.3773H4.40547L6.41641 17.6617C6.73984 18.8359 7.81797 19.6562 9.03672 19.6562C9.73281 19.6562 10.382 19.3797 10.8625 18.8734C11.343 18.3695 11.5891 17.7086 11.5539 17.0125L11.4133 14.132H17.0359C17.3195 14.132 17.5961 14.057 17.8398 13.9141C18.7867 13.3633 19.375 12.3648 19.375 11.3125C19.375 10.6492 19.157 10.0117 18.7633 9.49141ZM0.625 1.09375V9.625C0.625 10.0398 0.960156 10.375 1.375 10.375H2.89844V0.34375H1.375C0.960156 0.34375 0.625 0.678906 0.625 1.09375Z" fill="#636F7A"/>
</svg>
