<svg width="20" height="20" viewBox="0 0 20 20" fill="none" xmlns="http://www.w3.org/2000/svg">
<path d="M18.7633 10.5086C19.157 9.98825 19.375 9.35075 19.375 8.68747C19.375 7.63513 18.7867 6.63903 17.8398 6.08357C17.5961 5.94059 17.3185 5.86533 17.0359 5.8656H11.4156L11.5563 2.98513C11.5891 2.28904 11.343 1.6281 10.8648 1.1242C10.6302 0.875827 10.3471 0.678214 10.0331 0.543571C9.71905 0.408928 9.38074 0.340116 9.03906 0.341387C7.82031 0.341387 6.74219 1.1617 6.41875 2.33592L4.40547 9.62497H4.39844V19.6562H15.468C15.6836 19.6562 15.8945 19.614 16.0891 19.5296C17.2047 19.0539 17.9242 17.964 17.9242 16.7546C17.9242 16.4593 17.882 16.1687 17.7977 15.8875C18.1914 15.3671 18.4094 14.7296 18.4094 14.0664C18.4094 13.7711 18.3672 13.4804 18.2828 13.1992C18.6766 12.6789 18.8945 12.0414 18.8945 11.3781C18.8898 11.0828 18.8477 10.7898 18.7633 10.5086ZM0.625 10.375V18.9062C0.625 19.321 0.960156 19.6562 1.375 19.6562H2.89844V9.62497H1.375C0.960156 9.62497 0.625 9.96012 0.625 10.375Z" fill="#636F7A"/>
</svg>
