<svg width="20" height="20" viewBox="0 0 20 20" fill="none" xmlns="http://www.w3.org/2000/svg">
<path d="M18.7633 9.49128C18.8477 9.21003 18.8898 8.9194 18.8898 8.62409C18.8898 7.96081 18.6719 7.32331 18.2781 6.803C18.3625 6.52175 18.4047 6.23112 18.4047 5.93581C18.4047 5.27253 18.1867 4.63503 17.793 4.11472C17.8773 3.83347 17.9195 3.54284 17.9195 3.24753C17.9195 2.03815 17.2 0.94831 16.0844 0.472529C15.8883 0.387987 15.6768 0.344898 15.4633 0.345967H1.375C0.960156 0.345967 0.625 0.681123 0.625 1.09597V9.62722C0.625 10.0421 0.960156 10.3772 1.375 10.3772H4.40547L6.41641 17.6616C6.73984 18.8358 7.81797 19.6561 9.03672 19.6561C9.73281 19.6561 10.382 19.3796 10.8625 18.8733C11.343 18.3694 11.5891 17.7085 11.5539 17.0124L11.4133 14.1319H17.0359C17.3195 14.1319 17.5961 14.0569 17.8398 13.9139C18.7867 13.3632 19.375 12.3647 19.375 11.3124C19.375 10.6491 19.157 10.0116 18.7633 9.49128ZM2.3125 8.68737V2.03112H4.21094V8.68737H2.3125ZM17.0125 12.4467H9.64375L9.86875 17.0967C9.88281 17.3757 9.75859 17.6382 9.52656 17.8116C9.38359 17.9171 9.20781 17.971 9.03203 17.9686C8.80746 17.9664 8.58965 17.8915 8.41131 17.755C8.23297 17.6185 8.10372 17.4278 8.04297 17.2116L5.71094 8.76237V2.03112H15.4469C15.6811 2.13611 15.8801 2.30655 16.0198 2.52193C16.1595 2.73731 16.234 2.98846 16.2344 3.24519C16.2344 3.47253 16.1805 3.68815 16.0727 3.88503L15.7469 4.48034L16.2602 4.92565C16.4046 5.05078 16.5204 5.20557 16.5997 5.37948C16.679 5.55339 16.7199 5.74234 16.7195 5.93347C16.7195 6.16081 16.6656 6.37643 16.5578 6.57331L16.232 7.16862L16.7453 7.61394C16.8898 7.73906 17.0056 7.89385 17.0849 8.06776C17.1641 8.24167 17.205 8.43062 17.2047 8.62175C17.2047 8.84909 17.1508 9.06472 17.043 9.26159L16.7148 9.85925L17.2281 10.3046C17.3726 10.4297 17.4884 10.5845 17.5677 10.7584C17.647 10.9323 17.6878 11.1212 17.6875 11.3124C17.6875 11.76 17.4297 12.1913 17.0125 12.4467Z" fill="#636F7A"/>
</svg>
