<svg width="16" height="16" viewBox="0 0 16 16" fill="none" xmlns="http://www.w3.org/2000/svg">
<path d="M8.00004 1.33337C5.42004 1.33337 3.33337 3.42004 3.33337 6.00004C3.33337 9.50004 8.00004 14.6667 8.00004 14.6667C8.00004 14.6667 12.6667 9.50004 12.6667 6.00004C12.6667 3.42004 10.58 1.33337 8.00004 1.33337ZM8.00004 7.66671C7.55801 7.66671 7.13409 7.49111 6.82153 7.17855C6.50897 6.86599 6.33337 6.44207 6.33337 6.00004C6.33337 5.55801 6.50897 5.13409 6.82153 4.82153C7.13409 4.50897 7.55801 4.33337 8.00004 4.33337C8.44207 4.33337 8.86599 4.50897 9.17855 4.82153C9.49111 5.13409 9.66671 5.55801 9.66671 6.00004C9.66671 6.44207 9.49111 6.86599 9.17855 7.17855C8.86599 7.49111 8.44207 7.66671 8.00004 7.66671Z" fill="#8995A0"/>
</svg>
