<svg width="25" height="24" viewBox="0 0 25 24" fill="none" xmlns="http://www.w3.org/2000/svg">
<g clip-path="url(#clip0)">
<path d="M6.5 7H12.5V13H6.5V7ZM13.5 15H6.5V17H18.5V15H14.5H13.5ZM14.5 11H18.5V13H14.5V11ZM14.5 7H18.5V9H14.5V7Z" fill="#FF3B30"/>
<rect x="0.5" y="3.41418" width="2" height="28" transform="rotate(-45 0.5 3.41418)" fill="#FF3B30"/>
<path fill-rule="evenodd" clip-rule="evenodd" d="M2.97325 3.74287C2.6774 4.08657 2.5 4.52411 2.5 5V19C2.5 20.103 3.453 21 4.625 21H20.2304L18.2304 19H4.625C4.58813 19 4.5588 18.9933 4.53807 18.9886C4.52675 18.986 4.518 18.984 4.512 18.984C4.505 18.984 4.501 18.986 4.5 18.992L4.48818 5.2578L2.97325 3.74287ZM20.5116 18.4528L20.5 5.008C20.4984 5.01869 20.4854 5.01595 20.4615 5.01093C20.4407 5.00656 20.4118 5.00047 20.375 5H7.0588L5.0588 3H20.375C21.547 3 22.5 3.897 22.5 5V19C22.5 19.4036 22.3724 19.7797 22.1531 20.0943L20.5116 18.4528Z" fill="#FF3B30"/>
</g>
<defs>
<clipPath id="clip0">
<path d="M0.5 0H24.5V24H0.5V0Z" fill="white"/>
</clipPath>
</defs>
</svg>
