<svg width="40" height="26" viewBox="0 0 40 26" fill="none" xmlns="http://www.w3.org/2000/svg">
<path fill-rule="evenodd" clip-rule="evenodd" d="M37.3186 12.874C37.3186 7.13072 32.6376 2.46833 26.8713 2.46833H12.9335C7.16731 2.46833 2.48629 7.13072 2.48629 12.874C2.48629 18.6173 7.16731 23.2797 12.9335 23.2797H26.8713C32.6376 23.2797 37.3186 18.6173 37.3186 12.874ZM12.9335 0H26.8713C30.3214 0 33.5689 1.33903 36.0147 3.76702C38.4605 6.20308 39.8049 9.42965 39.8049 12.874C39.8049 16.3103 38.4605 19.545 36.0147 21.981C33.5689 24.4171 30.3295 25.7561 26.8713 25.7561H12.9335C9.48352 25.7561 6.23596 24.4171 3.79017 21.981C1.34438 19.545 0 16.3103 0 12.874C0 9.43772 1.34438 6.20308 3.79017 3.76702C6.22786 1.33903 9.47542 0 12.9335 0ZM32.1595 12.8821C32.1595 9.9056 29.7218 7.47761 26.7334 7.47761C23.745 7.47761 21.3073 9.9056 21.3073 12.8821C21.3073 15.8586 23.745 18.2866 26.7334 18.2866C29.7218 18.2866 32.1595 15.8586 32.1595 12.8821ZM18.8211 12.8821C18.8211 8.52624 22.3683 5.00121 26.7334 5.00121C31.1067 5.00121 34.6458 8.52624 34.6458 12.8821C34.6458 17.238 31.0986 20.763 26.7334 20.763C22.3602 20.763 18.8211 17.2299 18.8211 12.8821Z" fill="white"/>
</svg>
